name rise31.4854peak64.571fall78.6902.mot
datacolumns 19
datarows 23
range 16.64994100000000 16.68660800000000
endheader
time	ground_force1_vx	ground_force1_vy	ground_force1_vz	ground_force1_px	ground_force1_py	ground_force1_pz	ground_force2_vx	ground_force2_vy	ground_force2_vz	ground_force2_px	ground_force2_py	ground_force2_pz	ground_torque1_x	ground_torque1_y	ground_torque1_z	ground_torque2_x	ground_torque2_y	ground_torque2_z	
16.64994100000000	-2.88590000000000	42.40153700000000	-11.16664500000000	0.28366700000000	0.00000000000000	0.08691200000000	-49.44495900000000	784.19514600000002	-51.18938200000000	0.12251700000000	0.00000000000000	-0.08591900000000	0.00000000000000	-7.97537100000000	0.00000000000000	0.00000000000000	-19.32707500000000	0.00000000000000	
16.65160200000000	-3.00360500000000	50.05545600000000	-12.61653900000000	0.29195100000000	0.00000000000000	0.08812100000000	-50.07180800000000	781.66975400000001	-50.91149100000000	0.12171000000000	0.00000000000000	-0.08584000000000	0.00000000000000	-9.15215100000000	0.00000000000000	0.00000000000000	-19.29289900000000	0.00000000000000	
16.65327400000000	-3.01889000000000	57.89622100000000	-13.95440200000000	0.29931800000000	0.00000000000000	0.08920200000000	-50.71496200000000	779.01755500000002	-50.60769900000000	0.12090600000000	0.00000000000000	-0.08575700000000	0.00000000000000	-10.27106500000000	0.00000000000000	0.00000000000000	-19.25950900000000	0.00000000000000	
16.65493500000000	-2.92175300000000	65.82869100000001	-15.15030300000000	0.30593400000000	0.00000000000000	0.09017900000000	-51.37367600000000	776.23567700000001	-50.27778700000000	0.12010500000000	0.00000000000000	-0.08567100000000	0.00000000000000	-11.30749200000000	0.00000000000000	0.00000000000000	-19.22684600000000	0.00000000000000	
16.65660800000000	-2.70650400000000	73.77803100000000	-16.18373700000000	0.31192700000000	0.00000000000000	0.09106900000000	-52.04711100000000	773.32120499999996	-49.92157600000000	0.11930900000000	0.00000000000000	-0.08558000000000	0.00000000000000	-12.24353500000000	0.00000000000000	0.00000000000000	-19.19483800000000	0.00000000000000	
16.65827400000000	-2.37161000000000	81.69233300000000	-17.04384100000000	0.31739900000000	0.00000000000000	0.09188600000000	-52.73432800000000	770.27118399999995	-49.53893000000000	0.11851800000000	0.00000000000000	-0.08548600000000	0.00000000000000	-13.06840100000000	0.00000000000000	0.00000000000000	-19.16339500000000	0.00000000000000	
16.65993700000000	-1.91923500000000	89.54289900000001	-17.72877200000000	0.32242900000000	0.00000000000000	0.09264200000000	-53.43429500000000	767.08262900000000	-49.12975700000000	0.11773300000000	0.00000000000000	-0.08538700000000	0.00000000000000	-13.77813800000000	0.00000000000000	0.00000000000000	-19.13241400000000	0.00000000000000	
16.66160000000000	-1.35456000000000	97.32257500000000	-18.24446900000000	0.32708000000000	0.00000000000000	0.09334400000000	-54.14588300000000	763.75253199999997	-48.69401000000000	0.11695500000000	0.00000000000000	-0.08528500000000	0.00000000000000	-14.37486000000000	0.00000000000000	0.00000000000000	-19.10177300000000	0.00000000000000	
16.66327500000000	-0.68497900000000	105.04258299999999	-18.60298200000000	0.33140500000000	0.00000000000000	0.09400000000000	-54.86786900000000	760.27787200000000	-48.23168700000000	0.11618600000000	0.00000000000000	-0.08517800000000	0.00000000000000	-14.86559400000000	0.00000000000000	0.00000000000000	-19.07133600000000	0.00000000000000	
16.66494100000000	0.08074300000000	112.72841000000000	-18.82059400000000	0.33544600000000	0.00000000000000	0.09461600000000	-55.59893400000000	756.65562599999998	-47.74283400000000	0.11542500000000	0.00000000000000	-0.08506700000000	0.00000000000000	-15.26094000000000	0.00000000000000	0.00000000000000	-19.04095100000000	0.00000000000000	
16.66660300000000	0.93326600000000	120.41522800000000	-18.91593000000000	0.33923800000000	0.00000000000000	0.09519800000000	-56.33767200000000	752.88277700000003	-47.22754500000000	0.11467500000000	0.00000000000000	-0.08495100000000	0.00000000000000	-15.57365400000000	0.00000000000000	0.00000000000000	-19.01044700000000	0.00000000000000	
16.66826700000000	1.86338300000000	128.14332099999999	-18.90819900000000	0.34281100000000	0.00000000000000	0.09574800000000	-57.08258500000000	748.95632699999999	-46.68596500000000	0.11393500000000	0.00000000000000	-0.08483100000000	0.00000000000000	-15.81731200000000	0.00000000000000	0.00000000000000	-18.97964200000000	0.00000000000000	
16.66993800000000	2.86258100000000	135.95387400000001	-18.81569600000000	0.34618800000000	0.00000000000000	0.09627000000000	-57.83208700000000	744.87331099999994	-46.11828800000000	0.11320800000000	0.00000000000000	-0.08470700000000	0.00000000000000	-16.00512800000000	0.00000000000000	0.00000000000000	-18.94833500000000	0.00000000000000	
16.67160800000000	3.92345100000000	143.88539700000001	-18.65463500000000	0.34939000000000	0.00000000000000	0.09676800000000	-58.58451100000000	740.63080900000000	-45.52475900000000	0.11249500000000	0.00000000000000	-0.08457900000000	0.00000000000000	-16.14901500000000	0.00000000000000	0.00000000000000	-18.91631100000000	0.00000000000000	
16.67327300000000	5.03993300000000	151.97094500000000	-18.43834400000000	0.35243600000000	0.00000000000000	0.09724400000000	-59.33810700000000	736.22596299999998	-44.90567600000000	0.11179500000000	0.00000000000000	-0.08444500000000	0.00000000000000	-16.25889500000000	0.00000000000000	0.00000000000000	-18.88334100000000	0.00000000000000	
16.67493800000000	6.20740500000000	160.23621000000000	-18.17682300000000	0.35533800000000	0.00000000000000	0.09769900000000	-60.09105100000000	731.65598899999998	-44.26139100000000	0.11111100000000	0.00000000000000	-0.08430700000000	0.00000000000000	-16.34229500000000	0.00000000000000	0.00000000000000	-18.84918200000000	0.00000000000000	
16.67660200000000	7.42265000000000	168.69847200000001	-17.87662900000000	0.35811100000000	0.00000000000000	0.09813700000000	-60.84144600000000	726.91819899999996	-43.59230700000000	0.11044300000000	0.00000000000000	-0.08416500000000	0.00000000000000	-16.40419100000000	0.00000000000000	0.00000000000000	-18.81357600000000	0.00000000000000	
16.67827400000000	8.68370200000000	177.36633399999999	-17.54104500000000	0.36076600000000	0.00000000000000	0.09855800000000	-61.58732600000000	722.01001599999995	-42.89888200000000	0.10979200000000	0.00000000000000	-0.08401700000000	0.00000000000000	-16.44707200000000	0.00000000000000	0.00000000000000	-18.77625500000000	0.00000000000000	
16.67994300000000	9.98963400000000	186.24010999999999	-17.17046200000000	0.36331000000000	0.00000000000000	0.09896400000000	-62.32666500000000	716.92899000000000	-42.18162600000000	0.10915900000000	0.00000000000000	-0.08386500000000	0.00000000000000	-16.47118800000000	0.00000000000000	0.00000000000000	-18.73693700000000	0.00000000000000	
16.68160300000000	11.34028300000000	195.31273400000001	-16.76291600000000	0.36575300000000	0.00000000000000	0.09935600000000	-63.05737900000000	711.67282200000000	-41.44110400000000	0.10854500000000	0.00000000000000	-0.08370900000000	0.00000000000000	-16.47492000000000	0.00000000000000	0.00000000000000	-18.69533000000000	0.00000000000000	
16.68326700000000	12.73597400000000	204.57101000000000	-16.31470000000000	0.36810100000000	0.00000000000000	0.09973500000000	-63.77733400000000	706.23937899999999	-40.67793400000000	0.10795100000000	0.00000000000000	-0.08354700000000	0.00000000000000	-16.45522500000000	0.00000000000000	0.00000000000000	-18.65113300000000	0.00000000000000	
16.68494100000000	14.17724200000000	213.99705200000000	-15.82100100000000	0.37036000000000	0.00000000000000	0.10010300000000	-64.48435000000001	700.62671399999999	-39.89278800000000	0.10737800000000	0.00000000000000	-0.08338000000000	0.00000000000000	-16.40811400000000	0.00000000000000	0.00000000000000	-18.60403500000000	0.00000000000000	
16.68660800000000	15.66458100000000	223.56978500000000	-15.27650600000000	0.37253500000000	0.00000000000000	0.10045900000000	-65.17620599999999	694.83308499999998	-39.08638700000000	0.10682700000000	0.00000000000000	-0.08320900000000	0.00000000000000	-16.32911500000000	0.00000000000000	0.00000000000000	-18.55371700000000	0.00000000000000	
